<?xml version="1.0" encoding="UTF-8"?>
<!-- Generator: Adobe Illustrator 18.1.1, SVG Export Plug-In . SVG Version: 6.00 Build 0)  -->
<svg version="1.1" id="svg2524" xmlns:svg="http://www.w3.org/2000/svg" xmlns="http://www.w3.org/2000/svg" xmlns:xlink="http://www.w3.org/1999/xlink" x="0px" y="0px" viewBox="37.7 177.1 1010.6 204.7" enable-background="new 37.7 177.1 1010.6 204.7" xml:space="preserve">
<path id="path2508" fill="#DA2128" d="M876.9,277.6c0-23.8-3.6-33.4-26.8-33.4c-18.5,0-23.8,5.3-23.8,33.4c0,25.3,0,40,23.8,40  C876.9,317.6,876.9,304.2,876.9,277.6 M614.4,244.2c-23.2,0-24.7,4.9-24.7,24.7h50C639.7,245.9,636.3,244.2,614.4,244.2   M757.9,277.6c0-23.8-3.2-33.4-26.4-33.4c-18.5,0-23.8,5.3-23.8,33.4c0,25.3-0.6,40,23.8,40C758.9,317.6,757.9,304.2,757.9,277.6   M1037.1,177.3H785.1v159.5h-26.8l1.1-16.8h-0.8c-6.8,14.7-19.2,18.1-34.9,18.1c-41.5,0-42.8-26.2-42.8-60.5  c0-32.8,4.5-53.9,42.8-53.9c13.6,0,27.9,2.6,33.6,16.2h1.1v-62.6H618.2c0,0-15.5,0-20.5,14.6l-12.4,36c7.2-2.8,16.7-4.2,29.1-4.2  c46,0,52.2,13.4,52.2,62.2h-76.9c0,24.1,0.6,31.7,24.7,31.7c14.9,0,25.3,0.2,25.3-16.4h26.8c0,35.1-20.2,36.8-52.2,36.8  c-39,0-49.7-11.4-51.3-46.2L537,367.2c0,0-5.1,14.6,10.4,14.6h272.4c-10.5-4.8-16.7-14.5-15.8-33.5h25.1c0,15.3,5.7,17.7,20.9,17.7  c22.8,0,27.7-4.7,27.7-23.8v-21.3h-0.6c-7,14.7-21.3,17.2-34.9,17.2c-38.3,0-42.8-21.1-42.8-53.9c0-34.3,1.3-60.5,42.8-60.5  c15.8,0,28.1,3.4,34.9,18.1h0.8l-1.1-16.8h26.8v111.6c0,26-5.4,39.2-20.2,45.3h82.8c0,0,15.5,0,20.5-14.6l10.7-31  c-7.8,1.6-17.2,1.9-28.1,1.9c-42.8,0-51.5-13.6-51.5-56.8c0-40,6.4-57.5,51.5-57.5c39.7,0,49.7,10.1,51.7,44.2l26.3-75.9  C1047.5,191.9,1052.5,177.3,1037.1,177.3 M944.8,268.9h50c0-23-3.4-24.7-25.3-24.7C946.3,244.2,944.8,249.1,944.8,268.9   M994.8,301.2h14.8l5.3-15.3h-70.2c0,24.1,0.6,31.7,24.7,31.7C984.4,317.6,994.8,317.8,994.8,301.2"/>
<path id="path2512" d="M136.7,255.4c0-31.3-26.2-31.7-48.1-31.7c-28.7,0-50.9,0.6-50.9,31.3c0,28.5,7.5,34.1,48.5,34.7  c27,0.4,27.7,5.3,27.7,15.1c0,15.3-9.4,14.9-25.3,14.9c-19.8,0-23.6-1.9-24.1-18.1H37.7c0,36.4,20.4,36.4,50.9,36.4  c28.3,0,52.2-3,52.2-33.2c0-36.2-23.4-34.3-49.8-35.6c-23.4-1.1-26.4-1.5-26.4-12.6c0-14.7,9.8-14.7,24.1-14.7s21.3,0,21.3,13.4  H136.7z M209.3,223.7c-46.6,0-52.6,13.8-52.6,57.3c0,43.2,6,57.1,52.6,57.1s52.6-13.8,52.6-57.1  C261.8,237.6,255.9,223.7,209.3,223.7 M209.3,244.2c23.8,0,25.8,6.8,25.8,37c0,29.8-1.9,36.4-25.8,36.4c-23.8,0-25.8-6.6-25.8-36.4  C183.5,251,185.4,244.2,209.3,244.2 M311.4,177.1h-26.8v159.7h26.8V177.1z M385.3,286.5c13.2,0,24.7,0.4,24.7,16  c0,16-10.4,17.2-24.7,17.2c-18.1,0-24.5-1.5-24.5-17.2C360.8,286.5,371.7,286.5,385.3,286.5 M410,336.8h26.8v-70  c0-37.5-14.9-43-50.7-43c-25.5,0-47.9,1.3-47.9,33.8h26.8c0-14.5,9.4-15.5,21.1-15.5c22.4,0,23.8,6.4,23.8,24.5V281h-0.9  c-6.4-12.6-19.8-12.8-33.4-12.8c-27.7,0-41.7,7.5-41.7,34.3c0,30.2,16.4,35.6,41.7,35.6c13,0,29.4-0.4,34.7-15.3h0.6L410,336.8z   M461.5,225v111.8h26.8v-69c-0.4-14.5,4.3-23.6,20.2-23.6c12.6,0,13.6,6.6,13.6,17.9v5.7h25.1v-8.9c0-21.1-5.7-35.1-29.4-35.1  c-13,0-24.5,3.6-29.8,16h-1.1l0.6-14.7H461.5z"/>
</svg>